<svg id="Layer_1" data-name="Layer 1" 
xmlns="http://www.w3.org/2000/svg" 
viewBox="0 0 13.57 15.55">
<path style={{fill: "#0e4f7d"}}
d="M16.79,5.52V17.13a.58.58,0,0,1-.47.57,3.19,3.19,0,0,1-.52.06c-3.3,0-6.59,0-9.89,0C4,17.72,3.25,17,3.23,15c0-3.34,0-6.69,0-10,0-1.92.82-2.72,2.71-2.73,2.51,0,5,0,7.52,0a.51.51,0,0,1,.23.07.57.57,0,0,1-.1,1.07l-.1,0c-2.32,0-4.65,0-7,.06a1.72,1.72,0,0,0-.62.16.58.58,0,0,0,0,1.07,2,2,0,0,0,.67.16c2.87.07,5.75,0,8.63,0,.34,0,.67,0,1,0A.59.59,0,0,1,16.79,5.52Z" 
transform="translate(-3.21 -2.22)"/></svg>