<svg id="Layer_1" data-name="Layer 1" 
xmlns="http://www.w3.org/2000/svg" viewBox="0 0 16.3 18.19">
<rect style={{fill: "#0e4f7d"}} x="1.16" y="5.43" width="14.25" height="1.78"/>
<path style={{fill: "#0e4f7d"}} d="M17.28,13.08" transform="translate(-1.86 -0.9)"/>
<path style={{fill: "#0e4f7d"}} d="M13.46,17.94" transform="translate(-1.86 -0.9)"/>
<rect style={{fill: "#0e4f7d"}} x="10.11" width="1.84" height="4.81"/>
<rect style={{fill: "#0e4f7d"}} x="4.52" width="1.84" height="4.81"/>
<path style={{fill: "#0e4f7d"}} d="M14.9,19.1H5.12a3.27,3.27,0,0,1-3.26-3.26V6.06A3.27,3.27,0,0,1,5.12,2.8H14.9a3.26,3.26,0,0,1,3.26,3.26v9.78A3.27,3.27,0,0,1,14.9,19.1ZM5.12,4.57A1.49,1.49,0,0,0,3.64,6.06v9.78a1.49,1.49,0,0,0,1.48,1.48H14.9a1.49,1.49,0,0,0,1.49-1.48V6.06A1.49,1.49,0,0,0,14.9,4.57Z" 
transform="translate(-1.86 -0.9)"/>
<rect style={{fill: "#0e4f7d"}} x="3.86" y="12.88" width="1.5" height="1.5"/>
<rect style={{fill: "#0e4f7d"}} x="7.63" y="12.88" width="1.5" height="1.5"/>
<rect style={{fill: "#0e4f7d"}} x="11.6" y="12.88" width="1.5" height="1.5"/>
<path style={{fill: "#0e4f7d"}} d="M15.29,11.72H13.13V9.56h2.16Zm-1.49-.67h.83v-.83H13.8Z" 
transform="translate(-1.86 -0.9)"/>
<rect style={{fill: "#0e4f7d"}} x="3.86" y="8.99" width="1.5" height="1.5"/>
<rect style={{fill: "#0e4f7d"}} x="7.63" y="8.99" width="1.5" height="1.5"/></svg>