<svg id="Layer_1" data-name="Layer 1" 
xmlns="http://www.w3.org/2000/svg" viewBox="0 0 7.43 14.43">
<path style={{fill: "#0e4f7d"}} d="M9.1,12.37a5.44,5.44,0,0,1,.09-1,2.69,2.69,0,0,1,.4-.89l1.68-2.5a2.42,2.42,0,0,0,.46-1.32,1.78,1.78,0,0,0-.53-1.33,1.74,1.74,0,0,0-2.38,0,2,2,0,0,0-.54,1.34.4.4,0,0,1-.4.37H6.69a.4.4,0,0,1-.4-.4h0A3.71,3.71,0,0,1,7.4,3.88,3.56,3.56,0,0,1,10,2.78a3.88,3.88,0,0,1,2.61,1,3.75,3.75,0,0,1,1.14,2.84,3.7,3.7,0,0,1-.6,2.11l-1.7,2.52a2.1,2.1,0,0,0-.32,1.27v.74a.41.41,0,0,1-.41.41H9.5a.4.4,0,0,1-.4-.41Zm.4,2.8h1.18a.41.41,0,0,1,.41.41v1.23a.41.41,0,0,1-.41.41H9.5a.4.4,0,0,1-.4-.41V15.58A.4.4,0,0,1,9.5,15.17Z" 
transform="translate(-6.29 -2.78)"/></svg>