<svg id="Layer_1" data-name="Layer 1" xmlns="http://www.w3.org/2000/svg" 
viewBox="0 0 17.33 17.64">
<path style={{fill: "#56c2b0"}} d="M7,7.7c-1.73,0-3.46,0-5.19,0-.35,0-.47-.12-.47-.47,0-1.73,0-3.46,0-5.19a2,2,0,0,1,.13-.41,1.57,1.57,0,0,1,.38.22c.61.59,1.21,1.2,1.84,1.84L4,3.4A8.51,8.51,0,0,1,13,1.8a8.41,8.41,0,0,1,5.62,7A8.81,8.81,0,0,1,1.43,12.62c-.11-.37-.05-.55.34-.62s.89-.2,1.32-.33.5,0,.61.34a6.47,6.47,0,1,0,7.22-8.37A6.35,6.35,0,0,0,5.61,5.12a1.8,1.8,0,0,1-.32.19C6,6,6.59,6.6,7.18,7.2" 
transform="translate(-1.33 -1.18)"/></svg>