<svg id="Layer_1" data-name="Layer 1" xmlns="http://www.w3.org/2000/svg" 
viewBox="0 0 16.65 16.69">
<path style={{fill: "#56c2b0"}} d="M18.83,6.63c0,.13-.1.27-.16.4a.45.45,0,0,1-.11.13l-3.35,3.35c-.23.23-.45.46-.69.68a.67.67,0,0,1-.37.22.29.29,0,0,1-.32-.12.87.87,0,0,1-.12-.52V8.39c-.2,0-.4,0-.6,0-.47,0-.94,0-1.4.12a6.1,6.1,0,0,0-2.51.92,4.12,4.12,0,0,0-1.86,2.71,3.37,3.37,0,0,0,.06,1.67l.1.27a.44.44,0,0,1,0,.16c0,.27-.24.3-.42.19a.78.78,0,0,1-.24-.27A6.51,6.51,0,0,1,6,11.6,6.2,6.2,0,0,1,6.1,9.54,5.81,5.81,0,0,1,7.43,6.93a6.48,6.48,0,0,1,2.46-1.7,8.51,8.51,0,0,1,2.44-.57c.43,0,.85,0,1.28,0h.1V4.39c0-.47,0-.94,0-1.41,0-.28,0-.56,0-.84a.72.72,0,0,1,.07-.28.29.29,0,0,1,.42-.17,1.21,1.21,0,0,1,.35.24c.48.47.95,1,1.43,1.43L18.45,5.8a1.08,1.08,0,0,1,.35.53l0,.1Z" 
transform="translate(-2.18 -1.66)"/>
<path style={{fill: "#56c2b0"}} d="M5,18.34a3.5,3.5,0,0,1-.45-.07,2.93,2.93,0,0,1-2.25-2.14,2.71,2.71,0,0,1-.1-.75c0-2.84,0-5.69,0-8.53a2.82,2.82,0,0,1,1-2.16A3,3,0,0,1,4.72,4a3.55,3.55,0,0,1,.46,0H6.79a.6.6,0,1,1,0,1.19H5.15a1.81,1.81,0,0,0-1.73,1.4,3.27,3.27,0,0,0,0,.54c0,1.32,0,2.64,0,4v4.17a1.82,1.82,0,0,0,.21,1,1.77,1.77,0,0,0,1.62,1h8.31A1.76,1.76,0,0,0,15,16.49a1.67,1.67,0,0,0,.42-1.13V12.58a.6.6,0,0,1,.86-.54.57.57,0,0,1,.33.53c0,1,0,2,0,3a2.69,2.69,0,0,1-.78,1.79,2.84,2.84,0,0,1-1.79.94l-.24,0Z" 
transform="translate(-2.18 -1.66)"/></svg>