<svg id="Layer_1" data-name="Layer 1" xmlns="http://www.w3.org/2000/svg" 
viewBox="0 0 17.16 13.87">
<path style={{fill: "#56c2b0"}} d="M1.42,14.32a1.78,1.78,0,0,0,2-.38,1.19,1.19,0,0,1,.16-.08.74.74,0,0,1,1,.09,4.19,4.19,0,0,0,5-.15.86.86,0,0,1,.46-.13c.88,0,1.77,0,2.64-.06a2.25,2.25,0,0,0,1.88-1.38,8.4,8.4,0,0,0,1-4.66,2.18,2.18,0,0,1,.42-1.79c.05,0,0-.19,0-.27-.14-.35-.29-.7-.46-1a.69.69,0,0,0-.25-.26.43.43,0,0,1-.17-.57.41.41,0,0,1,.55-.23.44.44,0,0,1,.29.52.48.48,0,0,0,0,.29c.17.42.37.83.55,1.23h.85c.1-.48.19-1,.29-1.49a.2.2,0,0,0,0-.15c-.23-.35-.06-.56.23-.73H18c.36.3.38.46.1.82a.43.43,0,0,0-.09.21c-.07.29-.11.59-.19.87s-.19.76.29,1a.55.55,0,0,1,.19.23c.26.42.39.9,0,1.25a.55.55,0,0,0-.14.37c0,1,0,2.05.09,3.06a4.3,4.3,0,0,1-1.74,4,10.62,10.62,0,0,1-5.66,2,30.38,30.38,0,0,1-3.82.07,10.93,10.93,0,0,1-3.81-.81,2.83,2.83,0,0,1-1.82-1.59Zm15.64-8h-.17c-.09.15-.27.3-.26.43a.46.46,0,0,0,.35.31.46.46,0,0,0,.34-.31C17.33,6.61,17.15,6.47,17.06,6.32Z" 
transform="translate(-1.42 -3.09)"/>
<path style={{fill: "#56c2b0"}} d="M10.38,12.66a4.52,4.52,0,0,0,0-2.42A2.55,2.55,0,0,0,6.39,9a2.11,2.11,0,0,0-.83,2.1c0,.21.13.39.37.36s.2-.22.2-.4a1.62,1.62,0,0,1,1-1.69,2,2,0,0,1,2.2.74,2.29,2.29,0,0,1-.69,3.36,3.15,3.15,0,0,1-4.86-2.76A4.33,4.33,0,0,1,8.39,6.23a5.6,5.6,0,0,1,5.17,4.51c0,.16,0,.32.08.48.11.75.22.68-.61,1.06A5.16,5.16,0,0,1,10.38,12.66Z" 
transform="translate(-1.42 -3.09)"/></svg>